# xmcd
#
# Track frame offsets:
#	150
#	19162
#	39900
#	59125
#	77755
#	99872
#	119937
#	141585
#	163657
#	184135
#	203317
#	223857
#	245025
#	263475
#	282617
#	304610
#
# Disc length: 4365 seconds
#
# Revision: 1
# Processed by: cddbd v1.5PL3 Copyright (c) Steve Scherf et al.
# Submitted via: CDex 1.50Beta5
#
DISCID=f0110b10
DTITLE=五木ひろし - 全曲集-紫陽花・雑草-
DYEAR=1997
DGENRE=
TTITLE0=雑草
TTITLE1=紫陽花
TTITLE2=汽笛
TTITLE3=罪と罰
TTITLE4=渚の女
TTITLE5=面影の郷
TTITLE6=終着駅
TTITLE7=永遠の旅路
TTITLE8=心
TTITLE9=べにばな
TTITLE10=おはん
TTITLE11=長良川艶歌
TTITLE12=裏通り
TTITLE13=暖簾
TTITLE14=絆
TTITLE15=明日に向かって
EXTD=
EXTT0=
EXTT1=
EXTT2=
EXTT3=
EXTT4=
EXTT5=
EXTT6=
EXTT7=
EXTT8=
EXTT9=
EXTT10=
EXTT11=
EXTT12=
EXTT13=
EXTT14=
EXTT15=
PLAYORDER=
